<svg xmlns="http://www.w3.org/2000/svg" viewBox="0 0 1112.28 768"><defs><style>.a{fill:none;}.b,.c{fill:#242f60;}.c{font-size:140px;font-family:Cosmos-Light, Cosmos;font-weight:300;}</style></defs><rect class="a" width="1112.28" height="768"/><path class="b" d="M356.76,328a43.06,43.06,0,0,0-16.09-2.79c-13.91,0-27.81,4.77-33.64,7.07-1,.45-2.92,1.18-2.18.89,0,0-.51-.17-2.12-.87C296.94,330,283,325.21,269,325.21A43,43,0,0,0,252.94,328V257.07a62.26,62.26,0,0,1,19-3A48.92,48.92,0,0,1,303,265l1.81,2.07,1.8-2.07a49,49,0,0,1,31.13-10.9,62.33,62.33,0,0,1,19,3V328ZM221.09,243.87a9.32,9.32,0,1,1,9.32-9.32A9.32,9.32,0,0,1,221.09,243.87Zm192.81,69.3c-5.32-10.76-15.79-27-18.54-30.38l-.54,1.25c-.06.22-4.86,21.07-6.41,29.49,1.25-.63,3.39-1.86,5.22-2.9l1.63-.94.05,1.24c.58,14.27-2,26.67-7.59,36.84l-.1.19c-1,.18-2.13.33-3.22.43l-18.25-13.61v-68a3.24,3.24,0,0,0-.95-2.3,11.33,11.33,0,0,0-1.81-1.48l38.49-29.74a3.85,3.85,0,0,0,.53-5.61l-1.66-1.91a3.87,3.87,0,0,0-5.25-.52l-37.56,28.59a69.48,69.48,0,0,0-20.16-3.28c-10.52,0-19.85,2.63-27.82,7.82V246.91a44.29,44.29,0,0,0,14.7-3.3,2.56,2.56,0,0,0,1.49-2.32l.21-9.13a2.58,2.58,0,0,0-1.28-2.35c-2.12-1.18-6.91-3.23-15.12-3.87v-1.76a3,3,0,0,0-3-3h-4.22a3,3,0,0,0-3,3v1.76c-8.22.64-13,2.69-15.12,3.87a2.59,2.59,0,0,0-1.29,2.35l.22,9.13a2.55,2.55,0,0,0,1.49,2.32,44.23,44.23,0,0,0,14.7,3.3v11.47c-8-5.19-17.3-7.82-27.82-7.82a68.68,68.68,0,0,0-18.43,2.76L236.89,241A16.86,16.86,0,1,0,230.4,249l17.76,13.14a10.67,10.67,0,0,0-3.67,2.42,3.24,3.24,0,0,0-1,2.3v66.74l-12.7,9.4a10.29,10.29,0,0,0-5.33,1.43C215.41,329.8,207.32,311,208,293c-8.51,19-1.24,41.67,8.83,58.93l-3.66,2.46c-.48.33.36,2.42,1.88,4.67l1.56,2.32c1.51,2.25,3.13,3.82,3.62,3.5l4.18-2.82c13.5,14.49,32.75,27.74,53.17,25.26-17.42-5-32.39-17.23-43.45-31.35,1-.8,1.43-2.74,2.07-4.22l17.44-12.91c5.08-1.65,11.25-3.2,16.43-3.2a75.53,75.53,0,0,1,22.43,3.26s.08.06.26.09l7,2.26a2.36,2.36,0,0,0,0,.38v32.27a4,4,0,0,0,4,4H306a4,4,0,0,0,4-4V341.61c0-.13,0-.26,0-.38l7-2.26c.18,0,.27-.05.26-.09a75.41,75.41,0,0,1,22.42-3.26A51.27,51.27,0,0,1,353.25,338l24.14,18c.34,1.43.65,2.93.86,4.41-10.11,10-22.23,14.52-30.68,16.59l-1,.25.11-1.05c.14-1.45.32-2.92.48-4.25.15-1.17.3-2.45.38-3.34-7,4.7-23.73,16.89-23.84,17l-1,.94a269,269,0,0,0,33.89,3.15c-1.25-1-3-2.44-4.51-3.64l-1.15-.91,1.41-.4c8.57-2.42,20.55-7.21,31-16.54a87.89,87.89,0,0,0,12.75-4.38s0-5.92-.43-11c6.83-11.75,9.95-26.05,9.23-42.53l-.06-1.26,1.14.56c2.07,1,5.73,2.7,7.95,3.73Z" transform="translate(251.55 8.17)"/><path class="b" d="M310.35,271a1.24,1.24,0,0,0,.1,1l.12.2a1.2,1.2,0,0,0,1.61.52,54.52,54.52,0,0,1,22.42-5.07,43.9,43.9,0,0,1,10,1.13l.21,0h.07a1.24,1.24,0,0,0,1.2-.93l.05-.22a1.24,1.24,0,0,0-.14-1,1.23,1.23,0,0,0-.78-.57,47.16,47.16,0,0,0-10.74-1.22A55.58,55.58,0,0,0,311,270.26a1.22,1.22,0,0,0-.65.74Z" transform="translate(251.55 8.17)"/><path class="b" d="M310.57,280.18a1.22,1.22,0,0,0,1.08.65,1.37,1.37,0,0,0,.53-.12,53.85,53.85,0,0,1,22.41-5.07,44,44,0,0,1,10,1.12l.21,0h.07a1.25,1.25,0,0,0,1.2-.93l.05-.21a1.25,1.25,0,0,0-.92-1.54,47.73,47.73,0,0,0-10.74-1.22A55.81,55.81,0,0,0,311,278.26a1.21,1.21,0,0,0-.64.76,1.22,1.22,0,0,0,.1,1l.12.19Z" transform="translate(251.55 8.17)"/><path class="b" d="M345.2,281.6a47.15,47.15,0,0,0-10.74-1.21A56,56,0,0,0,311,285.75a1.27,1.27,0,0,0-.64.76,1.22,1.22,0,0,0,.1,1l.11.21a1.26,1.26,0,0,0,1.63.52,54.25,54.25,0,0,1,22.41-5.07,44.47,44.47,0,0,1,10,1.12l.21,0h.07a1.25,1.25,0,0,0,1.2-.93l.05-.22a1.21,1.21,0,0,0-.13-.95,1.32,1.32,0,0,0-.79-.6Z" transform="translate(251.55 8.17)"/><path class="b" d="M310.55,295.93a1.26,1.26,0,0,0,1.09.64,1.12,1.12,0,0,0,.53-.13,54.29,54.29,0,0,1,22.42-5.07,44,44,0,0,1,10,1.13l.21,0h.07a1.24,1.24,0,0,0,1.2-.93l.05-.21a1.25,1.25,0,0,0-.92-1.54,47.24,47.24,0,0,0-10.75-1.21A55.78,55.78,0,0,0,311,294a1.31,1.31,0,0,0-.65.77,1.24,1.24,0,0,0,.1,1l.12.2Z" transform="translate(251.55 8.17)"/><path class="b" d="M345.19,297.48a47.16,47.16,0,0,0-10.74-1.22A55.58,55.58,0,0,0,311,301.63a1.19,1.19,0,0,0-.65.74,1.18,1.18,0,0,0,.1,1l.11.21a1.24,1.24,0,0,0,1.09.64,1.32,1.32,0,0,0,.54-.12A54.06,54.06,0,0,1,334.59,299a44,44,0,0,1,10,1.13l.21,0h.06a1.24,1.24,0,0,0,1.21-.92l.05-.22a1.2,1.2,0,0,0-.14-1,1.25,1.25,0,0,0-.79-.57Z" transform="translate(251.55 8.17)"/><path class="b" d="M345.2,305.31a47.16,47.16,0,0,0-10.74-1.22A55.81,55.81,0,0,0,311,309.46a1.27,1.27,0,0,0-.64.76,1.2,1.2,0,0,0,.1,1l.11.2a1.25,1.25,0,0,0,1.09.65,1.13,1.13,0,0,0,.54-.13,54.42,54.42,0,0,1,22.41-5.07,43.83,43.83,0,0,1,10,1.13l.21,0h.07a1.24,1.24,0,0,0,1.2-.93l.05-.22a1.2,1.2,0,0,0-.14-1,1.25,1.25,0,0,0-.78-.57Z" transform="translate(251.55 8.17)"/><path class="b" d="M345.21,313.17A47.16,47.16,0,0,0,334.47,312,55.9,55.9,0,0,0,311,317.31a1.25,1.25,0,0,0-.65.76,1.45,1.45,0,0,0,.2,1.16,1.25,1.25,0,0,0,1.63.53,54.37,54.37,0,0,1,22.41-5.07,44.53,44.53,0,0,1,10,1.12l.21,0h.07a1.25,1.25,0,0,0,1.2-.92l.05-.22a1.21,1.21,0,0,0-.14-1,1.23,1.23,0,0,0-.77-.57Z" transform="translate(251.55 8.17)"/><path class="b" d="M292,294a55.7,55.7,0,0,0-23.47-5.36,47.22,47.22,0,0,0-10.74,1.22,1.18,1.18,0,0,0-.78.56,1.19,1.19,0,0,0-.14,1l0,.23a1.25,1.25,0,0,0,1.2.92h.21l.07,0a43.92,43.92,0,0,1,10-1.13,54.09,54.09,0,0,1,22.42,5.08,1.21,1.21,0,0,0,.53.12,1.22,1.22,0,0,0,1.08-.65l.12-.19a1.2,1.2,0,0,0,.1-1A1.27,1.27,0,0,0,292,294Z" transform="translate(251.55 8.17)"/><path class="b" d="M292,301.63a55.67,55.67,0,0,0-23.46-5.37,47.16,47.16,0,0,0-10.74,1.22,1.28,1.28,0,0,0-.8.57,1.23,1.23,0,0,0-.13.95l0,.23a1.25,1.25,0,0,0,1.2.93l.21,0h.07a43.37,43.37,0,0,1,10-1.13,54.25,54.25,0,0,1,22.42,5.07,1.21,1.21,0,0,0,.53.12,1.23,1.23,0,0,0,1.08-.64l.12-.21a1.22,1.22,0,0,0-.55-1.71Z" transform="translate(251.55 8.17)"/><path class="b" d="M292,309.46a55.71,55.71,0,0,0-23.46-5.37,47.16,47.16,0,0,0-10.74,1.22,1.23,1.23,0,0,0-.78.57,1.19,1.19,0,0,0-.14.95l0,.23a1.25,1.25,0,0,0,1.2.93l.21,0h.07a43.83,43.83,0,0,1,10-1.13,54.42,54.42,0,0,1,22.41,5.07,1.25,1.25,0,0,0,.54.12,1.23,1.23,0,0,0,1.08-.64l.12-.2a1.18,1.18,0,0,0,.1-.95,1.27,1.27,0,0,0-.65-.77Z" transform="translate(251.55 8.17)"/><path class="b" d="M292,317.31A55.9,55.9,0,0,0,268.56,312a47.31,47.31,0,0,0-10.75,1.22,1.18,1.18,0,0,0-.76.57,1.21,1.21,0,0,0-.14,1l0,.22a1.25,1.25,0,0,0,1.2.93l.21,0,.07,0a44.4,44.4,0,0,1,10-1.12,54.42,54.42,0,0,1,22.41,5.07,1.25,1.25,0,0,0,.54.12,1.23,1.23,0,0,0,1.08-.65l.11-.19a1.26,1.26,0,0,0,.1-1,1.31,1.31,0,0,0-.65-.76Z" transform="translate(251.55 8.17)"/><path class="b" d="M260.91,283.77a44.46,44.46,0,0,1,7.52-.63,54.35,54.35,0,0,1,22.42,5.07,1.17,1.17,0,0,0,.52.12,1.25,1.25,0,0,0,1.09-.64l.12-.21a1.24,1.24,0,0,0,.1-1,1.27,1.27,0,0,0-.65-.77,55.92,55.92,0,0,0-22.67-5.36v-4.75a53.92,53.92,0,0,1,21.47,5.07,1.41,1.41,0,0,0,.53.12,1.24,1.24,0,0,0,1.09-.65l.12-.19a1.25,1.25,0,0,0-.55-1.73,58.77,58.77,0,0,0-22.66-5.35l0-5.27a54.55,54.55,0,0,1,21.45,5.06,1.25,1.25,0,0,0,.53.13,1.24,1.24,0,0,0,1.09-.65l.12-.2a1.29,1.29,0,0,0,.1-1,1.22,1.22,0,0,0-.65-.74,55.67,55.67,0,0,0-23.46-5.37,45.92,45.92,0,0,0-10.73,1.24l-1,.49,0,18,4-.82Z" transform="translate(251.55 8.17)"/><path class="b" d="M335.27,115.72h-.35s.35,0,.35,0c-5.33,1.12-13.14,11.35-14.52,13.22a7.68,7.68,0,0,0,1.66,6.53c1.61,2.27.77,4.55-.79,7.17a62.64,62.64,0,0,0-4.11,10,11.55,11.55,0,0,1-4.79,3.18c-.33-.18-.47-1.17-.47-1.17-2.57-3.78-7.23-3.34-7.23-3.34-5,.86-5.23,2.45-5.23,2.45,1.08-.12,4.36,1.18,4.36,1.18,0,.78,1.34,1.49,1.34,1.49a8.27,8.27,0,0,0-5.65,1.21c-4.67,3.22-3,6.75-3,6.75,0-2.78,4.06-3.43,4.06-3.43,1.77,1.62,8.64-1.18,8.64-1.18l-6,5a6.32,6.32,0,0,0-.93,6.08c.1-2.24,3.17-3,3.17-3a3.81,3.81,0,0,0,2.77-1.26,5.26,5.26,0,0,0,4-4.63,21,21,0,0,1,11.38-1.1c3.5,2,5.95,3.61,5.95,3.61l.66-1c2.61-.57,3.88,2.61,3.88,2.61.89-4.19-2.41-5.59-2.41-5.59a5.35,5.35,0,0,0-3.87-1.51l-4.22-1.18c0-.06-1.28-.46-1.31-.52a7.15,7.15,0,0,1-.75-3.4,15.16,15.16,0,0,1,1.07-3c2.21-3,5.54-6.55,6.66-8.9s2-6.43,5.17-8.13c1.3-.65,3-1.27,4.4-1.94h0a.55.55,0,0,0,.13-.07,11,11,0,0,0,2-1.12,45,45,0,0,0,4.26-2.57,59.79,59.79,0,0,1-10.21-12.41Z" transform="translate(251.55 8.17)"/><path class="b" d="M322.46,111.31a11.26,11.26,0,0,1,6.45,5,11.91,11.91,0,0,1,4.66-2.62s-4.16-7-10.84-6.45h-.37c-3.41.23-9.54,3.44-23.55,12.6-21.62,14.14-33.09,6.41-33.09,6.41-4.06,10.93-10.62,13.62-10.62,13.62a23.52,23.52,0,0,0,5.59,3.61l.31-.29a44.58,44.58,0,0,0,4-4.56c.69-.88,1.32-1.81,1.89-2.69s1.08-1.74,1.47-2.5.71-1.39.91-1.84l.33-.72-.16.77c-.1.49-.25,1.19-.49,2s-.53,1.8-.91,2.82-.81,2.11-1.3,3.17A45.82,45.82,0,0,1,264,144.8a32.35,32.35,0,0,0,7.66,1.6l.26-.36a42.94,42.94,0,0,0,3.1-5.25c.51-1,1-2,1.35-3s.72-1.91,1-2.72.43-1.5.54-2l.19-.76s0,.28,0,.78,0,1.22-.1,2.08-.18,1.88-.35,3-.39,2.23-.67,3.36a46.49,46.49,0,0,1-1.55,5,39.3,39.3,0,0,0,9.78-1.5l.18-.51a42.31,42.31,0,0,0,1.48-5.91c.2-1.1.35-2.21.44-3.26a28,28,0,0,0,.15-2.89c0-.85,0-1.56,0-2s0-.79,0-.79.07.27.21.76.32,1.17.49,2a29,29,0,0,1,.5,2.93,33.26,33.26,0,0,1,.3,3.41,43.08,43.08,0,0,1,0,5.11,55.64,55.64,0,0,0,7.33-3.31c1-.54,2-1.08,2.94-1.61a43.15,43.15,0,0,0-.31-4.86c-.13-1.11-.31-2.22-.52-3.25s-.45-2-.7-2.81-.46-1.49-.64-2-.26-.74-.26-.74l.42.66c.28.43.66,1,1.07,1.8s.88,1.66,1.33,2.65.89,2.07,1.28,3.18.84,2.54,1.15,3.75q4.61-2.62,8.32-5a39.75,39.75,0,0,0-1.11-5.43c-.27-1-.6-2-.94-3s-.7-1.81-1-2.53-.64-1.34-.86-1.75l-.35-.66.49.56c.32.35.76.87,1.26,1.52s1.07,1.42,1.65,2.28,1.15,1.8,1.68,2.77A41.53,41.53,0,0,1,313,130.4c1.56-1.09,2.95-2.14,4.15-3.13h0l1.3-1a6,6,0,0,0-.36-2.9c-.32-.77-.66-1.56-1.05-2.34-.46-1-1-1.88-1.49-2.73s-1-1.65-1.49-2.29-.89-1.2-1.18-1.56l-.47-.58.59.46c.38.29.92.7,1.52,1.25s1.32,1.19,2.05,1.93,1.46,1.55,2.17,2.41l.32.4A8.78,8.78,0,0,1,321,125a58.5,58.5,0,0,1,5.87-6.85c-.68-4.6-4.91-6.95-4.38-6.82Z" transform="translate(251.55 8.17)"/><path class="b" d="M227.88,70.62c7.29,1.18,17.64-3.37,21.79-8.09-.64-1.28-2.67-1.79-3.84-1.61C240.31,65,228.54,70.31,221,64.58c0,0-7.11-5.23-2.33-13.69,0,0,1.34,4.31,3.83,4.56,0,0,.56-7.12,4.78-8.46a10.33,10.33,0,0,0-10.57,2.48C210.93,55.27,215.13,68.56,227.88,70.62Z" transform="translate(251.55 8.17)"/><path class="b" d="M271.8,114.13c6.69-1.09,13.29,2,13.29,2,2.08-7.35-.88-9.54-.88-9.54C278,112.82,271.8,114.13,271.8,114.13Z" transform="translate(251.55 8.17)"/><path class="b" d="M295.9,107.33s1.56-6.65-3.59-9.7c0,0-2.72,4.66-5.48,7,0,0,2,2.76,1.23,5.31,0,0,4.34-3.94,7.84-2.59Z" transform="translate(251.55 8.17)"/><path class="b" d="M313.77,91.12s2.23-8.46,10.12-8.46c0,0-4.37-7.23-15-7.43s-11.41,8.4-11.41,8.4v.24c0-.11,6.13-3.51,12.53,1.85,0,0,3.34,2.33,3.78,5.4Z" transform="translate(251.55 8.17)"/><path class="b" d="M249.9,99.16c-.63.55-1.32,1.25-2,2s-1.45,1.6-2.13,2.48a42.16,42.16,0,0,0-3.43,5c-.18.31-.32.58-.47.84,0,.08-.05.16-.07.23a43.41,43.41,0,0,0-1.68,7.89c.58-.69,1.2-1.39,1.85-2.07.79-.84,1.62-1.64,2.42-2.35a29.19,29.19,0,0,1,2.26-1.87c.67-.52,1.25-.92,1.67-1.19l.64-.43-.53.56c-.34.36-.82.87-1.35,1.53s-1.13,1.41-1.74,2.25-1.2,1.78-1.76,2.73a41.08,41.08,0,0,0-2.68,5.37c-.25.59-.43,1.07-.57,1.47a9.24,9.24,0,0,0,2.27,4.53,10.12,10.12,0,0,1,1-2c1.39-2.49,3-4.83,4.57-7.19h0c2.51-3.75,5.91-7.82,7-8.38a29.17,29.17,0,0,1-.09-15.44c1-5,5.54-13,6-18.5-1.49,1.86-2.64,3.16-6,3.61l-.64,1.81h0L251.9,87a26.93,26.93,0,0,1,3.59-1.28c.6-.18,1.11-.29,1.46-.36l.55-.12-.49.28c-.31.18-.75.44-1.25.77A26.67,26.67,0,0,0,252.29,89a27.65,27.65,0,0,0-3,3.14l-.32.39c-.38.72-.78,1.5-1.23,2.41-.7,1.4-1.45,3-2.21,4.67-.35.78-.69,1.59-1,2.41.83-.66,1.68-1.28,2.5-1.84s1.75-1.14,2.51-1.55,1.37-.75,1.83-1l.7-.34-.61.49c-.39.3-.94.75-1.56,1.33Z" transform="translate(251.55 8.17)"/><path class="b" d="M343.15,68.72c-.1-4.23.91-9.08,4.29-11.37,7.45-5.08,27.67-4,27.67-4-4.21-1.68-45.74-8.47-67.18,11.84,0,0,19.63-10.27,33.8,2.16C342.25,67.66,342.71,68.4,343.15,68.72Z" transform="translate(251.55 8.17)"/><path class="b" d="M338.94,68.72a35.89,35.89,0,0,0-11-4.3c-7.37-1.34-20.53,1-25.73,9.53,13.24-3.72,19.89,1.69,23.74,5.58C326.84,70,336.94,69.15,338.94,68.72Z" transform="translate(251.55 8.17)"/><path class="b" d="M298.15,100.4c3.45-7.93,13.16-7.52,13.16-7.52,0-1.47-2.73-6-8.72-7.37-6.62-1.53-9.55,9-9.55,9,4.59.79,5.11,5.89,5.11,5.89Z" transform="translate(251.55 8.17)"/><path class="b" d="M256.72,112.65a5.69,5.69,0,0,0-2.48,2.23,128.24,128.24,0,0,0-9.78,15.17c-4.52,7.29-8.9,17.84-14.69,23.37a3.61,3.61,0,0,1-1.55,1.07c-.82.29-1.8-1.17-1.8-1.17-2.56-3.78-7.22-3.33-7.22-3.33-5,.85-5.24,2.45-5.24,2.45,1.09-.12,4.37,1.17,4.37,1.17,0,.78,1.33,1.49,1.33,1.49a8.32,8.32,0,0,0-5.64,1.21c-4.67,3.22-3,6.75-3,6.75,0-2.78,4.07-3.42,4.07-3.42,1.76,1.62,8.64-1.19,8.64-1.19l-6,5a6.32,6.32,0,0,0-.93,6.08c.09-2.24,3.16-3,3.16-3a3.81,3.81,0,0,0,2.78-1.26,5.25,5.25,0,0,0,4-4.63,21,21,0,0,1,11.38-1.1c3.51,2,5.95,3.6,5.95,3.6l.67-1c2.61-.56,3.87,2.61,3.87,2.61.89-4.19-2.41-5.59-2.41-5.59a5.29,5.29,0,0,0-3.86-1.5l-3.86-1.08a8.45,8.45,0,0,1-.81-1.65c-.47-3.42,2-6.65,3.66-9.24,5.08-5.53,13-7.75,16.64-11.77a22.68,22.68,0,0,0,6-16.83c-.22-3.19-5.89-4.69-7.2-4.37Z" transform="translate(251.55 8.17)"/><path class="b" d="M215.44,91a21,21,0,0,1,1.11,11.38c-2,3.51-3.61,6-3.61,6l1,.66c.56,2.61-2.61,3.87-2.61,3.87,4.19.89,5.59-2.41,5.59-2.41a5.35,5.35,0,0,0,1.5-3.86l1.08-3.86a7.69,7.69,0,0,1,1.65-.81c2.08-1.09,3.83.16,5.14,1.32.48.46,1,.91,1.44,1.42,2.83,2.57,4,6.48,6.06,9.55v0l3,4.74a40.56,40.56,0,0,1,1.78-9.22c.52-1.69,1.1-3.37,1.72-5h-2.85c-3.44-.88-6.12-4-9.35-6.76-1-.94-3.41-2.72-5.37-4.13-.57-.41-.87-.48-1.16-1.3s1.17-1.8,1.17-1.8c3.77-2.56,3.33-7.22,3.33-7.22-.86-5-2.45-5.23-2.45-5.23.12,1.08-1.18,4.36-1.18,4.36-.77,0-1.49,1.33-1.49,1.33a8.28,8.28,0,0,0-1.2-5.64c-3.23-4.68-6.76-3-6.76-3,2.78,0,3.43,4.07,3.43,4.07-1.62,1.77,1.18,8.64,1.18,8.64l-5-6a6.32,6.32,0,0,0-6.08-.93c2.24.1,3,3.17,3,3.17a3.84,3.84,0,0,0,1.26,2.77A5.25,5.25,0,0,0,215.44,91Z" transform="translate(251.55 8.17)"/><path class="b" d="M283.07,103.77h0c5.31-4.44,9.73-15.21,11-19.46,15.21-50.63,83.8-32.42,83.8-32.42-21.11-8.17-42.39-5.44-42.39-5.44S303.82,48,292.18,74.18c-7,15.65-10.51,21-12,22.77h0c-8.11,8.58-15.58,7.75-15.58,7.75a22.33,22.33,0,0,0,12.77-9.61,9.33,9.33,0,0,0,1.07-2.2,33.3,33.3,0,0,1-3.3.64c-2.43.09-4.61-2-5.1-4.8A27,27,0,0,0,267,92.88c.24-2.71,2.21-5.56,3.66-7.32a8.44,8.44,0,0,1,1.22-1.39l.32-.33v0a15.93,15.93,0,0,1,1.93-1.46s-3.67-2.15-3.84-6a26.13,26.13,0,0,0-3.6,4.16c.47-3,3-5.94,4.59-7.52a7,7,0,0,1,3.42-2.27s-3.91-.78-3.27-7.49a27.87,27.87,0,0,0-2.62,3.2c.38-2.42,2.17-4.86,3.66-6.53a7,7,0,0,1,3.08-2.73,9.05,9.05,0,0,1-1-.88c-.4-.34-.88-.75-1.41-1.25a23.36,23.36,0,0,1-2.31-2.57A11,11,0,0,1,268.87,49a5.73,5.73,0,0,1-.26-2,5,5,0,0,1,.51-1.93,5.67,5.67,0,0,1,1.07-1.49,8.28,8.28,0,0,1,1.23-1,13.74,13.74,0,0,1,2.1-1.19l.83-.37-.81.42A8.58,8.58,0,0,0,272,42.38a8.17,8.17,0,0,0-1.12,1.09,5.48,5.48,0,0,0-.92,1.46,4.58,4.58,0,0,0-.35,1.77,5,5,0,0,0,.35,1.82,10.15,10.15,0,0,0,2.25,3.92,8.53,8.53,0,0,1-.32-3.92c.41-4.77,7.41-7.78,7.41-7.78a4,4,0,0,0-2.55-1.17S271.8,38.3,261.54,45c-5.16-2.94-12.86-1.54-17.89,3.39,0,0-6.64-3.14-15.05,4.74L237,55.61c2.49,1.25,2.91,1.65,2.89,4.72a9.51,9.51,0,0,1,9.89-.6c1.67.83,5.23,3.22,4,8a8.66,8.66,0,0,1-1.32,1.86c-3.34,3.59-8.51,3.81-12.65,4.24-1.39.2-2.75,2.82-3.35,4.22l1.17-.28c6.4-1.86,11.39,2,17.73-.68,5-3,6.65-6.54,6.6-12.68-.73-9.08-4.06-11.37-5.36-11.78-2.63-.66-4.28,2.1-5.74,1.2-1.76-1.08-1.08-3.83-1.08-3.83,1.74-.69,5.21.39,6.62.93,1.87,1,6.68,3.32,7.53,13.81a66.55,66.55,0,0,1,.26,9.47c-1,11.4-5.76,14.74-6.75,27,.19,7,.81,8.17,2.26,9.33,2.69,2.15,11.26,1.54,15.25-.57a33.56,33.56,0,0,0,8.08-6.12Z" transform="translate(251.55 8.17)"/><path class="b" d="M266.54,124l0-.06S266.55,124,266.54,124Z" transform="translate(251.55 8.17)"/><path class="b" d="M266.54,124Z" transform="translate(251.55 8.17)"/><path class="b" d="M266.57,123.93l.05-.13A1.12,1.12,0,0,0,266.57,123.93Z" transform="translate(251.55 8.17)"/><path class="b" d="M396.62,148.06a4.93,4.93,0,0,0-3.85,1l-3.95,1.46c-.22.21-3.06-.27-3.33-.08a58.57,58.57,0,0,1-2.58-8.84v0c-.16-.66-.32-1.37-.49-2.13h0l-.9-3.85-.86-7.07s-.05-.19-.14-.49a22.13,22.13,0,0,0-3.54-8.59h0c-6.19-10-19.17-14.32-19.31-14.35.58.11,11.89,2,19,10.23a34.07,34.07,0,0,0,9.51-3.64c13.41-7.5,21.22-27.42,10.3-41C385.63,57.16,364,63.3,361.65,75.49a15.3,15.3,0,0,0,5.58,15.16c-1.8-6.37,6.38-13.32,6.38-13.32-2.32-2.83-8.65-.69-8.65-.69,6.39-13.32,18.51-9.18,18.51-9.18,18.4,7.07,14.34,30.08-2.51,36.34-5.5,2-11.1,1.28-16.06-.64-7.26-3.65-3.81-14.62-3.81-14.62s-3.52,4.2-7.92,3.9h0a20.34,20.34,0,0,0,1.76,5.19c-2.48-2-3.66-7.08-3.66-7.08h0c-1.15-2.83-1-7.66-1.46-6.17a8,8,0,0,1-7.56,6.05s-.09,0-.14,0A23.35,23.35,0,0,0,344.33,94c-1.81-.93-3.35-3.24-4.22-4.77-1.64-2.28-2.22-6.93-2.22-6.93-3.71,6.9-14.37,8.38-18.45,8.62-6.21-.74-4.57,7.5-4.57,7.5-2.24-1.19-2.75-2.8-5.64-2.83a10,10,0,0,0-5.1,1.57c-3.25,2-5.77,5.24-6.08,13.84-3.1-2.51-6.27-1-9.4,1.26,0,0-.79,4.46-3.24,6.66a26.67,26.67,0,0,0-9.29-3h0a40.21,40.21,0,0,0-8.87.23,15.68,15.68,0,0,1-.64,7.64c8,5.33,20.63-.27,27.64-4.22,8-4.4,15.49-10.75,23.89-14a12.27,12.27,0,0,1,12.25,1.35c5.12,3.55,10.93,13.46,17,19.4.34.33,4,5.3,16.75,5.92,0,0,6.68-.13,11.66,7.78.23.38.46.78.7,1.2s.36.63.53,1a40.36,40.36,0,0,1,3.36,8.55,19.16,19.16,0,0,1-.6,3,5.35,5.35,0,0,1-.56,1.32h0c-.14.86-1.24-.4-1.24-.4C374,153,370.57,156,370.57,156c-3.48,3.58-2.76,5-2.76,5,.78-.71,4.06-1.53,4.06-1.53.43.62,1.86.45,1.86.45a8.2,8.2,0,0,0-3.76,4.23c-1.89,5.32,1.33,7.26,1.33,7.26-1.51-2.28,1.31-5.13,1.31-5.13,2.27.31,6.11-5.92,6.11-5.92l-2,7.53a6.38,6.38,0,0,0,2.6,5.51c-1.15-1.89.83-4.28.83-4.28a3.87,3.87,0,0,0,1.48-2.62,5.47,5.47,0,0,0,.61-6.1c-.35-4.58,8.3-7.42,8.3-7.42a20.89,20.89,0,0,0,6.59-1.68c1.73-2,4.46-.08,4.46-.08-1.6-3.94-4.95-3.2-4.95-3.2Z" transform="translate(251.55 8.17)"/><path class="b" d="M434.07,190.19l-.36.12c-4.2,2.79-34.14,20-110.31-2.34C230.61,160.81,174,207.52,174,207.52l.74.17c8.32-4.34,65.11-31.84,150.6-6.84C408,225,434.07,190.19,434.07,190.19Z" transform="translate(251.55 8.17)"/><path class="b" d="M304,459.31s147.9-37.79,166.06-156.6l-.67.79C456.11,390.07,304,437.38,304,437.38h.07S152,390.07,138.7,303.5l-.67-.79c18.15,118.81,166.06,156.6,166.06,156.6" transform="translate(251.55 8.17)"/><path class="b" d="M304,17.71c56.13,0,148.75,23.65,157.24,39.34,4.16,6.47,7.56,40.09,8.23,46l.7,1s1.61-34.17,1-44.53C470,38.15,394.47,0,304,0h.15c-90.49,0-166,38.15-167.2,59.58-.58,10.36,1,44.53,1,44.53l.69-1c.68-5.93,4.08-39.55,8.24-46C155.38,41.36,248,17.71,304.13,17.71" transform="translate(251.55 8.17)"/><text class="c" transform="translate(251.55 582.58)">SwanBlog</text></svg>